<svg xmlns="http://www.w3.org/2000/svg" viewBox="0 0 189 27"><path fill="#FFF" stroke="#FFF" stroke-width=".2" d="M58 21.29c-.114-.178-.26-.334-.43-.46-.166-.126-.352-.224-.55-.29-.203-.067-.416-.1-.63-.1-.347-.004-.69.075-1 .23-.28.146-.523.355-.71.61-.188.26-.327.55-.41.86-.185.654-.185 1.346 0 2 .083.31.222.6.41.86.187.255.43.464.71.61.31.154.653.233 1 .23.264.006.527-.046.77-.15.223-.1.423-.242.59-.42.168-.182.303-.392.4-.62.105-.242.173-.498.2-.76h.58c-.033.345-.12.682-.26 1-.126.288-.306.55-.53.77-.217.213-.476.38-.76.49-.32.12-.66.178-1 .17-.43-.013-.85-.123-1.23-.32-.347-.16-.654-.397-.9-.69-.242-.296-.425-.635-.54-1-.238-.782-.238-1.618 0-2.4.115-.365.298-.704.54-1 .244-.298.55-.537.9-.7.66-.295 1.407-.342 2.1-.13.27.083.524.21.75.38.224.17.414.38.56.62.156.256.255.542.29.84h-.58c-.046-.223-.13-.436-.25-.63H58zm77.12 2.24V26h.58v-2.5l2.4-3.58h-.69l-2 3.08-2-3.08h-.68l2.39 3.61zm-8.21-3.58V26h.58v-5.12l3.56 5.12h.65v-6.05h-.58v5.15l-3.54-5.15h-.67zm-4.25 0L120.21 26h.61l.73-1.89h2.77l.74 1.89h.62l-2.39-6.08-.63.03zm-.92 3.7l1.26-3.13 1.18 3.12-2.44.01zm-6.1-3.7V26h.58v-2.58h2.12c.252 0 .502-.04.74-.12.212-.07.407-.187.57-.34.163-.153.29-.34.37-.55.15-.46.144-.955-.02-1.41-.08-.208-.207-.396-.37-.55-.164-.153-.358-.27-.57-.34-.24-.077-.49-.115-.74-.11l-2.68-.05zm.58 3v-2.51h2c.36-.02.715.09 1 .31.497.524.497 1.346 0 1.87-.285.22-.64.33-1 .31l-2 .02zm-7.54-3l2 5.33 2.1-5.33h.85V26h-.58v-5.23L111 26h-.55l-2-5.26V26h-.58v-6.05h.81zm-7.76 1.84c-.238.782-.238 1.618 0 2.4.115.365.298.704.54 1 .246.293.553.53.9.69.8.347 1.71.347 2.51 0 .343-.163.647-.398.89-.69.242-.296.425-.635.54-1 .238-.782.238-1.618 0-2.4-.115-.365-.298-.704-.54-1-.24-.296-.545-.535-.89-.7-.8-.347-1.71-.347-2.51 0-.348.163-.656.402-.9.7-.242.296-.425.635-.54 1zm.53 2.18c-.185-.654-.185-1.346 0-2 .083-.31.222-.6.41-.86.186-.255.43-.464.71-.61.31-.155.653-.234 1-.23.347-.005.69.074 1 .23.28.146.523.355.71.61.187.26.326.55.41.86.185.654.185 1.346 0 2-.083.31-.222.6-.41.86-.187.255-.43.464-.71.61-.31.156-.653.234-1 .23-.347.004-.69-.075-1-.23-.28-.146-.524-.355-.71-.61-.188-.26-.327-.55-.41-.86zm-2.68-2.8c.12.194.204.407.25.63h.58c-.035-.298-.134-.584-.29-.84-.146-.24-.336-.45-.56-.62-.226-.17-.48-.297-.75-.38-.693-.212-1.44-.165-2.1.13-.35.163-.656.402-.9.7-.242.296-.425.635-.54 1-.238.782-.238 1.618 0 2.4.115.365.298.704.54 1 .246.293.553.53.9.69.395.18.826.27 1.26.26.34.008.68-.05 1-.17.284-.11.543-.277.76-.49.224-.22.404-.482.53-.77.14-.318.227-.655.26-1h-.58c-.027.262-.095.518-.2.76-.097.228-.232.438-.4.62-.167.178-.367.32-.59.42-.243.104-.506.156-.77.15-.347.003-.69-.076-1-.23-.28-.146-.523-.355-.71-.61-.202-.243-.358-.52-.46-.82-.185-.654-.185-1.346 0-2 .083-.31.222-.6.41-.86.187-.255.43-.464.71-.61.31-.155.653-.234 1-.23.214 0 .427.033.63.1.198.066.384.164.55.29.17.126.316.282.43.46l.04.02zM88 23.52V26h.58v-2.5L91 19.95h-.7l-2 3.08-2-3.08h-.68L88 23.52zm-7.43-3.58V26h4.24v-.49h-3.65v-2.4h3.39v-.49h-3.39v-2.2h3.62v-.49l-4.21.01zm-5.27 4.87c-.107-.245-.155-.513-.14-.78h-.58c-.03.34.02.683.15 1 .11.258.28.485.5.66.234.152.496.258.77.31.327.084.663.124 1 .12.31.005.62-.03.92-.1.225-.055.44-.142.64-.26.157-.09.296-.21.41-.35.093-.12.17-.25.23-.39.05-.115.083-.236.1-.36.005-.09.005-.18 0-.27.007-.22-.034-.438-.12-.64-.08-.173-.195-.327-.34-.45-.15-.127-.32-.232-.5-.31-.198-.085-.402-.155-.61-.21l-1.48-.37c-.12-.027-.237-.064-.35-.11-.106-.043-.204-.104-.29-.18-.085-.074-.154-.167-.2-.27-.05-.117-.074-.243-.07-.37-.006-.198.04-.394.13-.57.082-.15.2-.275.34-.37.15-.097.316-.164.49-.2.19-.042.385-.062.58-.06.21 0 .42.03.62.09.188.055.364.143.52.26.152.116.278.262.37.43.1.19.153.397.16.61h.58c.015-.55-.234-1.074-.67-1.41-.215-.165-.46-.287-.72-.36-.28-.08-.57-.12-.86-.12-.342-.007-.682.054-1 .18-.243.103-.46.256-.64.45-.148.16-.257.352-.32.56-.054.168-.084.343-.09.52-.005.21.036.418.12.61.07.16.173.302.3.42.13.115.28.206.44.27.17.068.343.125.52.17l1.35.33.43.13c.142.052.276.123.4.21.122.083.225.192.3.32.08.133.122.285.12.44.005.202-.05.4-.16.57-.105.153-.242.283-.4.38-.16.1-.336.174-.52.22-.17.044-.345.067-.52.07-.262.002-.524-.025-.78-.08-.226-.048-.44-.14-.63-.27-.18-.128-.326-.3-.42-.5l-.08.03zm-6.53-4.89V26h.58v-5.12L72.83 26h.65v-6.05h-.58v5.15l-3.54-5.15-.59-.03zm-1.83 0h-.58V26h.58v-6.08zm-6.65 0V26h.58v-2.06L62 22.86 64.49 26h.75l-2.84-3.54 2.72-2.51h-.78l-3.54 3.27v-3.27l-.51-.03zm-12.85 0l2 5.33 2.1-5.33h.85V26h-.58v-5.23L49.66 26h-.55l-2-5.26V26h-.58v-6.05l.91-.03zm-7.47 0L37.46 26h.61l.73-1.89h2.77l.74 1.89h.62l-2.39-6.08h-.57zM39 23.64l1.22-3.12 1.18 3.12H39z"/><path fill="#FFF" stroke="#FFF" stroke-width=".5" d="M154.85 8.92L157.56 2l2.61 6.89-5.32.03zm-24 3.91V7.47H135c.41 0 .817.038 1.22.11.397.066.78.202 1.13.4.336.193.62.464.83.79.23.39.34.838.32 1.29.053.802-.296 1.577-.93 2.07-.76.5-1.66.742-2.57.69l-4.15.01zm0-6V1.94H135c.393 0 .785.04 1.17.12.356.07.695.205 1 .4.282.185.515.436.68.73.183.344.272.73.26 1.12.026.69-.256 1.358-.77 1.82-.662.51-1.488.754-2.32.69l-4.17.01zm-65.16 2.1L68.43 2l2.61 6.89-5.35.04zm-21.05 1.44l-.39.53 1.84 1.31c-.82.617-1.825.934-2.85.9-1.434.03-2.804-.596-3.72-1.7-.447-.537-.787-1.155-1-1.82-.456-1.445-.456-2.995 0-4.44.213-.665.553-1.283 1-1.82.916-1.104 2.286-1.73 3.72-1.7.733-.013 1.46.144 2.12.46.608.298 1.146.72 1.58 1.24.447.537.786 1.155 1 1.82.23.717.346 1.467.34 2.22.008.84-.138 1.673-.43 2.46-.272.732-.698 1.397-1.25 1.95l-1.96-1.41zm133.58 3.1h.78v-4.3l2.53-2.3 5.51 6.6h.94L182 6.36l5.56-5.07h-1l-7.66 7v-7h-.75l.07 12.18zm-13.76-3.59c.244.733.628 1.412 1.13 2 .503.582 1.128 1.046 1.83 1.36.772.338 1.608.506 2.45.49.65.002 1.292-.127 1.89-.38.58-.23 1.11-.57 1.56-1 .46-.465.836-1.006 1.11-1.6.295-.63.477-1.307.54-2h-.75c-.084 1.124-.554 2.184-1.33 3-.387.415-.848.754-1.36 1-.52.246-1.086.372-1.66.37-1.434.03-2.804-.596-3.72-1.7-.447-.537-.786-1.155-1-1.82-.456-1.445-.456-2.995 0-4.44.214-.665.553-1.283 1-1.82.916-1.104 2.286-1.73 3.72-1.7.495-.003.988.07 1.46.22.45.144.873.364 1.25.65.37.274.69.612.94 1 .254.42.42.885.49 1.37h.75s0-.14-.07-.35c-.06-.257-.145-.508-.25-.75-.14-.327-.314-.64-.52-.93-.262-.328-.572-.615-.92-.85-.4-.302-.846-.538-1.32-.7-.6-.2-1.23-.294-1.86-.28-.842-.016-1.678.152-2.45.49-.702.314-1.327.778-1.83 1.36-.502.588-.886 1.267-1.13 2-.524 1.625-.524 3.375 0 5l.05.01zm-12.25 3.58h.8l1.55-3.91h5.83l1.61 3.92h.8L158 1.29h-.82l-4.97 12.17zm-9.7 0h7.66v-.65h-6.91V1.29h-.75v12.17zm-12.43 0H135c.587.007 1.173-.067 1.74-.22.486-.13.94-.354 1.34-.66.366-.285.66-.652.86-1.07.214-.46.32-.963.31-1.47.023-.53-.11-1.054-.38-1.51-.226-.36-.522-.674-.87-.92-.282-.2-.597-.353-.93-.45-.18-.06-.37-.094-.56-.1.654-.08 1.26-.388 1.71-.87.213-.23.38-.498.49-.79.114-.3.172-.62.17-.94-.003-.392-.07-.78-.2-1.15-.134-.378-.353-.72-.64-1-.337-.322-.74-.567-1.18-.72-.59-.197-1.21-.288-1.83-.27h-4.88l-.07 12.14zm-16.06 0h.75V2.21l4.69 11.26h.75l4.64-11.26v11.26h.75V1.29h-1.07l-4.71 11.35-4.76-11.35h-1.07l.03 12.17zM100.41 1.29v8.25c.054.782.27 1.544.63 2.24.196.38.465.72.79 1 .376.313.806.554 1.27.71.594.193 1.216.285 1.84.27.78.025 1.556-.112 2.28-.4.57-.24 1.073-.617 1.46-1.1.374-.485.64-1.044.78-1.64.156-.655.233-1.327.23-2v-7.3H109v7.3c.01.632-.058 1.264-.2 1.88-.117.516-.346 1-.67 1.42-.326.4-.75.71-1.23.9-.603.23-1.245.338-1.89.32-.513.013-1.024-.065-1.51-.23-.368-.14-.707-.347-1-.61-.275-.246-.502-.54-.67-.87-.316-.623-.503-1.303-.55-2V1.29h-.87zm-7.9.65v11.53h.75V1.94h4.3v-.65h-9.33v.65h4.28zM76 13.47h.75V2.21l7.75 11.26h.89V1.29h-.75v11.18L76.89 1.29H76v12.18zm-12.83 0h.8l1.55-3.91h5.83l1.54 3.91h.8L68.84 1.29H68l-4.83 12.18zM51.81 1.29v8.25c.054.782.27 1.544.63 2.24.196.38.465.72.79 1 .376.313.806.554 1.27.71.594.193 1.216.285 1.84.27.78.025 1.556-.112 2.28-.4.57-.24 1.073-.617 1.46-1.1.374-.485.64-1.044.78-1.64.156-.655.233-1.327.23-2v-7.3h-.75v7.3c.01.632-.058 1.264-.2 1.88-.118.516-.346 1-.67 1.42-.326.4-.75.71-1.23.9-.603.23-1.245.338-1.89.32-.513.013-1.024-.065-1.51-.23-.368-.14-.707-.347-1-.61-.275-.246-.502-.54-.67-.87-.316-.623-.503-1.303-.55-2V1.29h-.81zM48.7 14.1l.39-.53-1.89-1.36c.6-.593 1.065-1.31 1.36-2.1.313-.875.462-1.8.44-2.73.007-.85-.125-1.693-.39-2.5-.244-.733-.628-1.412-1.13-2-.5-.58-1.122-1.044-1.82-1.36-.76-.346-1.585-.524-2.42-.52-.842-.016-1.678.152-2.45.49-.688.32-1.298.783-1.79 1.36-.502.588-.886 1.267-1.13 2-.524 1.625-.524 3.375 0 5 .244.733.628 1.412 1.13 2 .503.582 1.128 1.046 1.83 1.36.772.338 1.608.506 2.45.49 1.243.037 2.46-.355 3.45-1.11l1.97 1.51z"/><path fill="#009FE3" stroke="#009FE3" stroke-width=".5" d="M21.67 26.03h-5.59v-1.01h5.3l2.64-4.63.88.5-2.79 4.88z"/><path fill="#FFF" stroke="#FFF" stroke-width=".5" d="M8.05 1.29l-.43.26-6.8 11.86v.5l6.8 11.87.43.25h3.9v-1.01h-3.6L1.84 13.66 8.35 2.3h13.01l6.5 11.36-1.85 3.24.87.5 2-3.49v-.5L22.09 1.55l-.44-.26z"/></svg>